<svg id="_x31__x2C_5" enable-background="new 0 0 24 24" height="512" viewBox="0 0 24 24" width="512" xmlns="http://www.w3.org/2000/svg"><g><path d="m20.09 9.89-2.84-2.71v-5.43h-3v2.57l-3.75-3.57-9.59 9.14c-.1.09-.16.22-.16.36 0 .28.22.5.5.5h2.5v7c0 .828.672 1.5 1.5 1.5h11c.552 0 1-.448 1-1v-7.5h2.5c.28 0 .5-.22.5-.5 0-.14-.06-.27-.16-.36z" fill="#cfd8dc"/></g><g><circle cx="17.5" cy="17.5" fill="#4caf50" r="5.75"/></g><g><path d="m17.5 24c-3.584 0-6.5-2.916-6.5-6.5s2.916-6.5 6.5-6.5 6.5 2.916 6.5 6.5-2.916 6.5-6.5 6.5zm0-11.5c-2.757 0-5 2.243-5 5s2.243 5 5 5 5-2.243 5-5-2.243-5-5-5z"/></g><g><path d="m17.5 21c-.414 0-.75-.336-.75-.75v-5.5c0-.414.336-.75.75-.75s.75.336.75.75v5.5c0 .414-.336.75-.75.75z"/></g><g><path d="m20.25 18.25h-5.5c-.414 0-.75-.336-.75-.75s.336-.75.75-.75h5.5c.414 0 .75.336.75.75s-.336.75-.75.75z"/></g><g><path d="m8.25 20h-3c-1.241 0-2.25-1.009-2.25-2.25v-6.25h-1.75c-.689 0-1.25-.561-1.25-1.25 0-.35.149-.685.409-.918l9.573-9.125c.29-.275.745-.276 1.035 0l2.483 2.363v-.82c0-.414.336-.75.75-.75h3c.414 0 .75.336.75.75v5.11l.918.878c.299.286.31.761.023 1.061-.287.298-.762.309-1.061.023l-1.15-1.1c-.147-.141-.23-.337-.23-.542v-4.68h-1.5v1.82c0 .3-.179.571-.455.689-.277.117-.596.06-.812-.146l-3.233-3.077-8.618 8.214h1.868c.414 0 .75.336.75.75v7c0 .414.336.75.75.75h3c.414 0 .75.336.75.75s-.336.75-.75.75zm-6.815-9.574-.007.007c.002-.002.005-.004.007-.007z"/></g></svg>